# xmcd CD database file
#
# Track frame offsets:
#	150
#	30644
#	53414
#	67415
#	98610
#	109787
#	123218
#	134177
#	157363
#	175285
#	194071
#	224430
#	241403
#	265206
#	283459
#	297559
#
# Disc length: 4130 seconds
#
# Revision: 11
# Processed by: cddbd v1.5.2PL0 Copyright (c) Steve Scherf et al.
# Submitted via: CDex 1.51
#
DISCID=0f102010
DTITLE=Ketil Bjørnstad - Floating
DYEAR=2005
DGENRE=Jazz
TTITLE0=Floating
TTITLE1=The Sorrow In Her Eyes
TTITLE2=Memory
TTITLE3=Ray Of Light
TTITLE4=Looking Back
TTITLE5=Caravan Moving
TTITLE6=Thought
TTITLE7=The Woman On The Pier
TTITLE8=Undercurrent
TTITLE9=The Rainbow
TTITLE10=The Course
TTITLE11=Her Singing
TTITLE12=The Face
TTITLE13=As You Always Said (To Rolf)
TTITLE14=The Waiting Room
TTITLE15=Floating (Epilogue)
EXTD=YEAR: 2005
EXTT0=
EXTT1=
EXTT2=
EXTT3=
EXTT4=
EXTT5=
EXTT6=
EXTT7=
EXTT8=
EXTT9=
EXTT10=
EXTT11=
EXTT12=
EXTT13=
EXTT14=
EXTT15=
PLAYORDER=
